<svg xmlns="http://www.w3.org/2000/svg" style="display:none;">
  
  <symbol id="icon-phone" viewBox="0 0 30 30">
    <path d="M29.9825 22.6619C29.7151 24.6945 28.7169 26.5602 27.1743 27.9106C25.6318 29.2609 23.6505 30.0037 21.6004 30C9.69018 30 1.35732e-05 20.3099 1.35732e-05 8.39978C-0.00366146 6.34969 0.739057 4.36837 2.08945 2.82587C3.43984 1.28336 5.30556 0.285159 7.33814 0.0176966C7.85213 -0.0450626 8.37263 0.0600899 8.82195 0.317457C9.27126 0.574825 9.62529 0.970603 9.83118 1.44571L12.9992 8.51828V8.53628C13.1569 8.89996 13.222 9.29703 13.1887 9.69201C13.1555 10.087 13.0249 10.4676 12.8087 10.7998C12.7817 10.8403 12.7532 10.8778 12.7232 10.9153L9.60018 14.6173C10.7237 16.9004 13.1117 19.2674 15.4248 20.3939L19.0758 17.2874C19.1117 17.2572 19.1493 17.2292 19.1883 17.2034C19.5203 16.982 19.9022 16.8468 20.2995 16.8102C20.6968 16.7735 21.097 16.8365 21.4639 16.9934L21.4834 17.0024L28.55 20.1689C29.026 20.3741 29.4227 20.7278 29.6809 21.1771C29.9391 21.6265 30.0449 22.1474 29.9825 22.6619Z" fill="currentColor"/>
  </symbol>

  <symbol id="icon-mail" viewBox="0 0 30 30">
    <path d="M28.8462 0H1.15385C0.847827 0 0.554342 0.121161 0.337954 0.336827C0.121566 0.552494 0 0.845001 0 1.15V20.7C0 21.31 0.243131 21.895 0.675907 22.3263C1.10868 22.7577 1.69565 23 2.30769 23H27.6923C28.3043 23 28.8913 22.7577 29.3241 22.3263C29.7569 21.895 30 21.31 30 20.7V1.15C30 0.845001 29.8784 0.552494 29.662 0.336827C29.4457 0.121161 29.1522 0 28.8462 0ZM27.6923 20.7H2.30769V3.76481L14.2197 14.6481C14.4326 14.8429 14.711 14.951 15 14.951C15.289 14.951 15.5674 14.8429 15.7803 14.6481L27.6923 3.76481V20.7Z" fill="currentColor"/>
  </symbol>

  <symbol id="icon-github" viewBox="0 0 30 30">
    <path d="M30 11.1111V12.2222C29.9977 14.1022 29.3152 15.9179 28.0786 17.334C26.842 18.75 25.1348 19.6709 23.2722 19.9264C24.0325 20.8993 24.4452 22.0986 24.4444 23.3333V28.8889C24.4444 29.1836 24.3274 29.4662 24.119 29.6746C23.9106 29.8829 23.628 30 23.3333 30H14.4444C14.1498 30 13.8671 29.8829 13.6588 29.6746C13.4504 29.4662 13.3333 29.1836 13.3333 28.8889V26.6667H10C8.52658 26.6667 7.1135 26.0814 6.07163 25.0395C5.02976 23.9976 4.44444 22.5845 4.44444 21.1111C4.44444 20.2271 4.09326 19.3792 3.46813 18.7541C2.84301 18.129 1.99517 17.7778 1.11111 17.7778C0.816426 17.7778 0.533811 17.6607 0.325437 17.4523C0.117063 17.244 0 16.9614 0 16.6667C0 16.372 0.117063 16.0894 0.325437 15.881C0.533811 15.6726 0.816426 15.5556 1.11111 15.5556C1.84068 15.5556 2.5631 15.6993 3.23713 15.9785C3.91116 16.2576 4.5236 16.6669 5.03948 17.1827C5.55536 17.6986 5.96458 18.3111 6.24378 18.9851C6.52297 19.6591 6.66667 20.3816 6.66667 21.1111C6.66667 21.9952 7.01786 22.843 7.64298 23.4681C8.2681 24.0933 9.11595 24.4444 10 24.4444H13.3333V23.3333C13.3326 22.0986 13.7453 20.8993 14.5056 19.9264C12.643 19.6709 10.9358 18.75 9.6992 17.334C8.4626 15.9179 7.78012 14.1022 7.77778 12.2222V11.1111C7.79161 9.73026 8.15934 8.37601 8.84583 7.17779C8.50621 6.08223 8.39727 4.92818 8.52588 3.78842C8.65448 2.64866 9.01785 1.54791 9.59306 0.555573C9.6906 0.386627 9.8309 0.246339 9.99986 0.148816C10.1688 0.051294 10.3605 -2.56296e-05 10.5556 1.81824e-05C11.8497 -0.00269074 13.1266 0.297329 14.2842 0.876107C15.4417 1.45489 16.4479 2.29638 17.2222 3.33335H20.5556C21.3299 2.29638 22.336 1.45489 23.4936 0.876107C24.6512 0.297329 25.928 -0.00269074 27.2222 1.81824e-05C27.4173 -2.56296e-05 27.609 0.051294 27.7779 0.148816C27.9469 0.246339 28.0872 0.386627 28.1847 0.555573C28.76 1.54789 29.1233 2.6487 29.2517 3.78851C29.3801 4.92833 29.2707 6.08237 28.9306 7.17779C29.6183 8.37554 29.9866 9.73001 30 11.1111Z" fill="currentColor"/>
  </symbol>

  <symbol id="icon-linkedin" viewBox="0 0 30 30">
    <path d="M27.6923 0H2.30769C1.69565 0 1.10868 0.243131 0.675907 0.675907C0.243131 1.10868 0 1.69565 0 2.30769V27.6923C0 28.3043 0.243131 28.8913 0.675907 29.3241C1.10868 29.7569 1.69565 30 2.30769 30H27.6923C28.3043 30 28.8913 29.7569 29.3241 29.3241C29.7569 28.8913 30 28.3043 30 27.6923V2.30769C30 1.69565 29.7569 1.10868 29.3241 0.675907C28.8913 0.243131 28.3043 0 27.6923 0ZM10.3846 21.9231C10.3846 22.2291 10.263 22.5226 10.0467 22.739C9.83027 22.9554 9.53679 23.0769 9.23077 23.0769C8.92475 23.0769 8.63126 22.9554 8.41488 22.739C8.19849 22.5226 8.07692 22.2291 8.07692 21.9231V12.6923C8.07692 12.3863 8.19849 12.0928 8.41488 11.8764C8.63126 11.66 8.92475 11.5385 9.23077 11.5385C9.53679 11.5385 9.83027 11.66 10.0467 11.8764C10.263 12.0928 10.3846 12.3863 10.3846 12.6923V21.9231ZM9.23077 10.3846C8.88846 10.3846 8.55383 10.2831 8.26921 10.0929C7.98458 9.90275 7.76274 9.63244 7.63175 9.31618C7.50075 8.99993 7.46647 8.65193 7.53326 8.31619C7.60004 7.98045 7.76488 7.67206 8.00693 7.43001C8.24898 7.18795 8.55738 7.02312 8.89311 6.95633C9.22885 6.88955 9.57685 6.92383 9.89311 7.05482C10.2094 7.18582 10.4797 7.40766 10.6699 7.69228C10.86 7.97691 10.9615 8.31153 10.9615 8.65385C10.9615 9.11287 10.7792 9.5531 10.4546 9.87768C10.13 10.2023 9.6898 10.3846 9.23077 10.3846ZM23.0769 21.9231C23.0769 22.2291 22.9554 22.5226 22.739 22.739C22.5226 22.9554 22.2291 23.0769 21.9231 23.0769C21.6171 23.0769 21.3236 22.9554 21.1072 22.739C20.8908 22.5226 20.7692 22.2291 20.7692 21.9231V16.7308C20.7692 15.9657 20.4653 15.232 19.9243 14.691C19.3834 14.1501 18.6497 13.8462 17.8846 13.8462C17.1196 13.8462 16.3859 14.1501 15.8449 14.691C15.3039 15.232 15 15.9657 15 16.7308V21.9231C15 22.2291 14.8784 22.5226 14.662 22.739C14.4457 22.9554 14.1522 23.0769 13.8462 23.0769C13.5401 23.0769 13.2466 22.9554 13.0303 22.739C12.8139 22.5226 12.6923 22.2291 12.6923 21.9231V12.6923C12.6937 12.4097 12.7989 12.1374 12.9877 11.9271C13.1766 11.7169 13.436 11.5832 13.7169 11.5516C13.9977 11.5199 14.2804 11.5924 14.5114 11.7554C14.7423 11.9183 14.9054 12.1604 14.9697 12.4356C15.7503 11.9061 16.6603 11.5992 17.6021 11.5479C18.5439 11.4965 19.482 11.7027 20.3154 12.1443C21.1489 12.5859 21.8463 13.2461 22.3329 14.0542C22.8194 14.8622 23.0766 15.7876 23.0769 16.7308V21.9231Z" fill="currentColor"/>
  </symbol>

</svg>
